<?plantuml 1.2026.2?><svg xmlns="http://www.w3.org/2000/svg" xmlns:xlink="http://www.w3.org/1999/xlink" contentStyleType="text/css" data-diagram-type="CLASS" height="434px" preserveAspectRatio="none" style="width:517px;height:434px;background:#FFFFFF;" version="1.1" viewBox="0 0 517 434" width="517px" zoomAndPan="magnify"><defs/><g><!--cluster View ? Componenti dominio--><g class="cluster" data-qualified-name="View . Componenti dominio" data-source-line="1" id="ent0002"><path d="M8.5,6 L218.5225,6 A3.75,3.75 0 0 1 221.0225,8.5 L228.0225,28.4883 L507.5,28.4883 A2.5,2.5 0 0 1 510,30.9883 L510,425.36 A2.5,2.5 0 0 1 507.5,427.86 L8.5,427.86 A2.5,2.5 0 0 1 6,425.36 L6,8.5 A2.5,2.5 0 0 1 8.5,6" fill="none" style="stroke:#000000;stroke-width:1.5;"/><line style="stroke:#000000;stroke-width:1.5;" x1="6" x2="228.0225" y1="28.4883" y2="28.4883"/><text fill="#000000" font-family="sans-serif" font-size="14" font-weight="bold" lengthAdjust="spacing" textLength="209.0225" x="10" y="21.5352">View &#8212; Componenti dominio</text></g><!--class AnalysisOptionsModal--><g class="entity" data-qualified-name="View . Componenti dominio.AnalysisOptionsModal" data-source-line="2" id="ent0003"><rect fill="#F1F1F1" height="245.8594" rx="2.5" ry="2.5" style="stroke:#181818;stroke-width:0.5;" width="471.9424" x="22.03" y="41"/><ellipse cx="178.549" cy="57" fill="#ADD1B2" rx="11" ry="11" style="stroke:#181818;stroke-width:1;"/><path d="M181.0222,63.1431 Q180.4411,63.4419 179.802,63.5913 Q179.1628,63.7407 178.4572,63.7407 Q175.9504,63.7407 174.6306,62.0889 Q173.3108,60.437 173.3108,57.3159 Q173.3108,54.1865 174.6306,52.5347 Q175.9504,50.8828 178.4572,50.8828 Q179.1628,50.8828 179.8103,51.0322 Q180.4577,51.1816 181.0222,51.4805 L181.0222,54.2031 Q180.3913,53.6221 179.7978,53.3523 Q179.2043,53.0825 178.5735,53.0825 Q177.2287,53.0825 176.5439,54.1492 Q175.8591,55.2158 175.8591,57.3159 Q175.8591,59.4077 176.5439,60.4744 Q177.2287,61.541 178.5735,61.541 Q179.2043,61.541 179.7978,61.2712 Q180.3913,61.0015 181.0222,60.4204 Z " fill="#000000"/><text fill="#000000" font-family="sans-serif" font-size="14" lengthAdjust="spacing" textLength="150.4043" x="199.049" y="62.291">AnalysisOptionsModal</text><line style="stroke:#181818;stroke-width:0.5;" x1="23.03" x2="492.9724" y1="73" y2="73"/><g data-visibility-modifier="PUBLIC_FIELD"><ellipse cx="33.03" cy="86.7441" fill="none" rx="3" ry="3" style="stroke:#038048;stroke-width:1;"/></g><text fill="#000000" font-family="sans-serif" font-size="14" lengthAdjust="spacing" textLength="97.0361" x="42.03" y="90.5352">open: boolean</text><g data-visibility-modifier="PUBLIC_FIELD"><ellipse cx="33.03" cy="103.2324" fill="none" rx="3" ry="3" style="stroke:#038048;stroke-width:1;"/></g><text fill="#000000" font-family="sans-serif" font-size="14" lengthAdjust="spacing" textLength="130.2725" x="42.03" y="107.0234">repositoryId: string</text><g data-visibility-modifier="PUBLIC_FIELD"><ellipse cx="33.03" cy="119.7207" fill="none" rx="3" ry="3" style="stroke:#038048;stroke-width:1;"/></g><text fill="#000000" font-family="sans-serif" font-size="14" lengthAdjust="spacing" textLength="156.3721" x="42.03" y="123.5117">repositoryName: string</text><g data-visibility-modifier="PUBLIC_FIELD"><ellipse cx="33.03" cy="136.209" fill="none" rx="3" ry="3" style="stroke:#038048;stroke-width:1;"/></g><text fill="#000000" font-family="sans-serif" font-size="14" lengthAdjust="spacing" textLength="136.9033" x="42.03" y="140">repositoryUrl: string</text><g data-visibility-modifier="PUBLIC_METHOD"><ellipse cx="33.03" cy="152.6973" fill="#84BE84" rx="3" ry="3" style="stroke:#038048;stroke-width:1;"/></g><text fill="#000000" font-family="sans-serif" font-size="14" lengthAdjust="spacing" textLength="185.3564" x="42.03" y="156.4883">onOpenChange(open): void</text><g data-visibility-modifier="PUBLIC_METHOD"><ellipse cx="33.03" cy="169.1855" fill="#84BE84" rx="3" ry="3" style="stroke:#038048;stroke-width:1;"/></g><text fill="#000000" font-family="sans-serif" font-size="14" lengthAdjust="spacing" textLength="112.041" x="42.03" y="172.9766">onStarted(): void</text><line style="stroke:#181818;stroke-width:1;" x1="23.03" x2="492.9724" y1="179.9297" y2="179.9297"/><text fill="#000000" font-family="sans-serif" font-size="14" lengthAdjust="spacing" textLength="459.9424" x="28.03" y="197.4648">Dialog modale per configurare e avviare un'analisi su un repository.</text><text fill="#000000" font-family="sans-serif" font-size="14" lengthAdjust="spacing" textLength="412.0293" x="28.03" y="213.9531">Permette di selezionare le aree da analizzare (code, security,</text><text fill="#000000" font-family="sans-serif" font-size="14" lengthAdjust="spacing" textLength="376.667" x="28.03" y="230.4414">documentation), il branch e un commit hash opzionale.</text><text fill="#000000" font-family="sans-serif" font-size="14" lengthAdjust="spacing" textLength="459.5186" x="28.03" y="246.9297">Se repositoryUrl &#232; fornito, usa POST /analysis/start (backend reale);</text><text fill="#000000" font-family="sans-serif" font-size="14" lengthAdjust="spacing" textLength="447.1182" x="28.03" y="263.418">altrimenti POST /analysis/repositories/:id/analyze (mock/legacy).</text><text fill="#000000" font-family="sans-serif" font-size="14" lengthAdjust="spacing" textLength="334.1201" x="28.03" y="279.9063">Chiama RepositoriesApi.startAnalysis() al submit.</text></g><!--class RepositoriesApi--><g class="entity" data-qualified-name="View . Componenti dominio.RepositoriesApi" data-source-line="18" id="ent0004"><rect fill="#F1F1F1" height="48" rx="2.5" ry="2.5" style="stroke:#181818;stroke-width:0.5;" width="138.3125" x="188.84" y="363.86"/><ellipse cx="203.84" cy="379.86" fill="#ADD1B2" rx="11" ry="11" style="stroke:#181818;stroke-width:1;"/><path d="M206.3131,386.0031 Q205.7321,386.3019 205.0929,386.4513 Q204.4538,386.6007 203.7482,386.6007 Q201.2414,386.6007 199.9215,384.9489 Q198.6017,383.297 198.6017,380.1759 Q198.6017,377.0465 199.9215,375.3947 Q201.2414,373.7428 203.7482,373.7428 Q204.4538,373.7428 205.1012,373.8922 Q205.7487,374.0416 206.3131,374.3405 L206.3131,377.0631 Q205.6823,376.4821 205.0888,376.2123 Q204.4953,375.9425 203.8644,375.9425 Q202.5197,375.9425 201.8349,377.0092 Q201.1501,378.0758 201.1501,380.1759 Q201.1501,382.2677 201.8349,383.3344 Q202.5197,384.401 203.8644,384.401 Q204.4953,384.401 205.0888,384.1312 Q205.6823,383.8615 206.3131,383.2804 Z " fill="#000000"/><text fill="#000000" font-family="sans-serif" font-size="14" lengthAdjust="spacing" textLength="106.3125" x="217.84" y="385.151">RepositoriesApi</text><line style="stroke:#181818;stroke-width:0.5;" x1="189.84" x2="326.1525" y1="395.86" y2="395.86"/><line style="stroke:#181818;stroke-width:0.5;" x1="189.84" x2="326.1525" y1="403.86" y2="403.86"/></g><!--link AnalysisOptionsModal to RepositoriesApi--><g class="link" data-entity-1="ent0003" data-entity-2="ent0004" data-link-type="dependency" data-source-line="18" id="lnk5"><path codeLine="18" d="M258,287.26 C258,316.6 258,338.87 258,357.75" fill="none" id="AnalysisOptionsModal-to-RepositoriesApi" style="stroke:#181818;stroke-width:1;"/><polygon fill="#181818" points="258,363.75,262,354.75,258,358.75,254,354.75,258,363.75" style="stroke:#181818;stroke-width:1;"/><text fill="#000000" font-family="sans-serif" font-size="13" lengthAdjust="spacing" textLength="89.083" x="259" y="330.4284">startAnalysis()</text></g><?plantuml-src TL91RXin3Bpx5OGltKNj-Eu21GBdaaFhe6vxfoLcbuWaBYIj2xi8q4Vq4Vr7VzANb98Jmt7Qosh54MV88GSq3zWHJByoVOC_Ftx2IlmWWK9ciE8vi4pX-mJ0E4m9hWEwVUAq7Z9BI1_4egimm5kGWS8IjYAEC3p58WsIE4lStzebf1mvTA-WZ-Zfl-2Nw2um2MjLMlKOEcgAQBk4dR0zmPkCCPDjpkFpUJrk69rqu4lX10D5C1BkkHiZHW82tEsu_8tX3Mgld1ZIgBUpWgugqHr5JpaJM7r1ZWxgHqbKLZqqZ5093eSIROnOckb3CqRE-rcbi696hqvZyRAT0JlOHWocXwAlXNdF6NfClLfR-HqTnJVqqY3u_Glk9GQzps1C27VhpMTOuDEq5gaO0irMfqt1QguojUyg5JgrrjTvNoIT59ZIOidsY1oq6I_cOU6eGxDlZmMjUaQFyEaivNhWgwhxl3DDgsBgvbQxAbcF4_tySw7cy_SmlU2QGjc25tIJnxy0?></g></svg>