<?xml version="1.0" encoding="us-ascii" standalone="no"?><svg xmlns="http://www.w3.org/2000/svg" xmlns:xlink="http://www.w3.org/1999/xlink" contentStyleType="text/css" height="110px" preserveAspectRatio="none" style="width:616px;height:110px;background:#FFFFFF;" version="1.1" viewBox="0 0 616 110" width="616px" zoomAndPan="magnify"><defs/><g><!--class A--><g id="elem_A"><rect codeLine="3" fill="#F1F1F1" height="96.4375" id="A" rx="2.5" ry="2.5" style="stroke:#181818;stroke-width:0.5;" width="191" x="212" y="7"/><text fill="#000000" font-family="sans-serif" font-size="14" lengthAdjust="spacing" textLength="9" x="303" y="26.5332">A</text><line style="stroke:#181818;stroke-width:0.5;" x1="213" x2="402" y1="34.6094" y2="34.6094"/><text fill="#000000" font-family="sans-serif" font-size="14" lengthAdjust="spacing" text-decoration="underline" textLength="67" x="218" y="53.1426">int counter</text><line style="stroke:#181818;stroke-width:0.5;" x1="213" x2="402" y1="60.2188" y2="60.2188"/><text fill="#000000" font-family="sans-serif" font-size="14" font-style="italic" lengthAdjust="spacing" textLength="158" x="218" y="78.752">+void start(int timeoutms)</text><text fill="#000000" font-family="sans-serif" font-size="14" font-style="italic" lengthAdjust="spacing" textLength="179" x="218" y="96.3613">+void start(Duration timeout)</text></g><path d="M6,37 L6,63.3516 A0,0 0 0 0 6,63.3516 L177,63.3516 A0,0 0 0 0 177,63.3516 L177,55 L216,47.4141 L177,47 L177,47 L167,37 L6,37 A0,0 0 0 0 6,37 " fill="#FEFFDD" style="stroke:#181818;stroke-width:0.5;"/><path d="M167,37 L167,47 L177,47 L167,37 " fill="#FEFFDD" style="stroke:#181818;stroke-width:0.5;"/><text fill="#000000" font-family="sans-serif" font-size="13" lengthAdjust="spacing" textLength="150" x="12" y="55.4951">This member is annotated</text><path d="M438,18.5 L438,27.6758 L376,73.0234 L438,35.6758 L438,44.8516 A0,0 0 0 0 438,44.8516 L575,44.8516 A0,0 0 0 0 575,44.8516 L575,28.5 L565,18.5 L438,18.5 A0,0 0 0 0 438,18.5 " fill="#FEFFDD" style="stroke:#181818;stroke-width:0.5;"/><path d="M565,18.5 L565,28.5 L575,28.5 L565,18.5 " fill="#FEFFDD" style="stroke:#181818;stroke-width:0.5;"/><text fill="#000000" font-family="sans-serif" font-size="13" lengthAdjust="spacing" textLength="116" x="444" y="36.9951">This method with int</text><path d="M438,54.8516 L438,64.0273 L397,90.6328 L438,72.0273 L438,81.2031 A0,0 0 0 0 438,81.2031 L609,81.2031 A0,0 0 0 0 609,81.2031 L609,64.8516 L599,54.8516 L438,54.8516 A0,0 0 0 0 438,54.8516 " fill="#FEFFDD" style="stroke:#181818;stroke-width:0.5;"/><path d="M599,54.8516 L599,64.8516 L609,64.8516 L599,54.8516 " fill="#FEFFDD" style="stroke:#181818;stroke-width:0.5;"/><text fill="#000000" font-family="sans-serif" font-size="13" lengthAdjust="spacing" textLength="150" x="444" y="73.3467">This method with Duration</text><!--SRC=[XO-nRiCm34HtVSKXKuCkdRCPoDAv_G5POYeYbbHGvnIeuN-ltS3ja1JT2F3Tup5f50IrC4XpxQpbtPlF28DlhIDD-v7o76fvqK_14zpt1XqcDpLwQfYXXGXrB1HpZvUg4PFl6yq7pbWWuyEAKBFKaRdj_wAEeot6MZPqxsPNAWM3d8XwGdSuR8U0rwGDMN8lXcNoPK4z9Jef4MlicZLzIrjuTw_DxjV5L2C-b6dzwN_FJT-xgetwyNq1]--></g></svg>