<?xml version="1.0" encoding="us-ascii" standalone="no"?><svg xmlns="http://www.w3.org/2000/svg" xmlns:xlink="http://www.w3.org/1999/xlink" contentStyleType="text/css" height="604px" preserveAspectRatio="none" style="width:1129px;height:604px;background:#FFFFFF;" version="1.1" viewBox="0 0 1129 604" width="1129px" zoomAndPan="magnify"><defs/><g><line style="stroke:#181818;stroke-width:0.5;stroke-dasharray:5.0,5.0;" x1="31" x2="31" y1="39.0679" y2="566.3642"/><line style="stroke:#181818;stroke-width:0.5;stroke-dasharray:5.0,5.0;" x1="265" x2="265" y1="39.0679" y2="566.3642"/><line style="stroke:#181818;stroke-width:0.5;stroke-dasharray:5.0,5.0;" x1="423" x2="423" y1="39.0679" y2="566.3642"/><line style="stroke:#181818;stroke-width:0.5;stroke-dasharray:5.0,5.0;" x1="553" x2="553" y1="39.0679" y2="566.3642"/><line style="stroke:#181818;stroke-width:0.5;stroke-dasharray:5.0,5.0;" x1="743.5" x2="743.5" y1="39.0679" y2="566.3642"/><line style="stroke:#181818;stroke-width:0.5;stroke-dasharray:5.0,5.0;" x1="941.5" x2="941.5" y1="39.0679" y2="566.3642"/><line style="stroke:#181818;stroke-width:0.5;stroke-dasharray:5.0,5.0;" x1="1079.5" x2="1079.5" y1="39.0679" y2="566.3642"/><rect fill="#E2E2F0" height="33.0679" rx="2.5" ry="2.5" style="stroke:#181818;stroke-width:0.5;" width="53" x="5" y="5"/><text fill="#000000" font-family="sans-serif" font-size="14" lengthAdjust="spacing" textLength="39" x="12" y="26.9659">Client</text><rect fill="#E2E2F0" height="33.0679" rx="2.5" ry="2.5" style="stroke:#181818;stroke-width:0.5;" width="53" x="5" y="565.3642"/><text fill="#000000" font-family="sans-serif" font-size="14" lengthAdjust="spacing" textLength="39" x="12" y="587.3301">Client</text><rect fill="#E2E2F0" height="33.0679" rx="2.5" ry="2.5" style="stroke:#181818;stroke-width:0.5;" width="93" x="219" y="5"/><text fill="#000000" font-family="sans-serif" font-size="14" lengthAdjust="spacing" textLength="79" x="226" y="26.9659">APIGateway</text><rect fill="#E2E2F0" height="33.0679" rx="2.5" ry="2.5" style="stroke:#181818;stroke-width:0.5;" width="93" x="219" y="565.3642"/><text fill="#000000" font-family="sans-serif" font-size="14" lengthAdjust="spacing" textLength="79" x="226" y="587.3301">APIGateway</text><rect fill="#E2E2F0" height="33.0679" rx="2.5" ry="2.5" style="stroke:#181818;stroke-width:0.5;" width="139" x="354" y="5"/><text fill="#000000" font-family="sans-serif" font-size="14" lengthAdjust="spacing" textLength="125" x="361" y="26.9659">LambdaAuthorizer</text><rect fill="#E2E2F0" height="33.0679" rx="2.5" ry="2.5" style="stroke:#181818;stroke-width:0.5;" width="139" x="354" y="565.3642"/><text fill="#000000" font-family="sans-serif" font-size="14" lengthAdjust="spacing" textLength="125" x="361" y="587.3301">LambdaAuthorizer</text><rect fill="#E2E2F0" height="33.0679" rx="2.5" ry="2.5" style="stroke:#181818;stroke-width:0.5;" width="100" x="503" y="5"/><text fill="#000000" font-family="sans-serif" font-size="14" lengthAdjust="spacing" textLength="86" x="510" y="26.9659">DbController</text><rect fill="#E2E2F0" height="33.0679" rx="2.5" ry="2.5" style="stroke:#181818;stroke-width:0.5;" width="100" x="503" y="565.3642"/><text fill="#000000" font-family="sans-serif" font-size="14" lengthAdjust="spacing" textLength="86" x="510" y="587.3301">DbController</text><rect fill="#E2E2F0" height="33.0679" rx="2.5" ry="2.5" style="stroke:#181818;stroke-width:0.5;" width="81" x="703.5" y="5"/><text fill="#000000" font-family="sans-serif" font-size="14" lengthAdjust="spacing" textLength="67" x="710.5" y="26.9659">DbService</text><rect fill="#E2E2F0" height="33.0679" rx="2.5" ry="2.5" style="stroke:#181818;stroke-width:0.5;" width="81" x="703.5" y="565.3642"/><text fill="#000000" font-family="sans-serif" font-size="14" lengthAdjust="spacing" textLength="67" x="710.5" y="587.3301">DbService</text><rect fill="#E2E2F0" height="33.0679" rx="2.5" ry="2.5" style="stroke:#181818;stroke-width:0.5;" width="169" x="857.5" y="5"/><text fill="#000000" font-family="sans-serif" font-size="14" lengthAdjust="spacing" textLength="155" x="864.5" y="26.9659">CredentialMicroservice</text><rect fill="#E2E2F0" height="33.0679" rx="2.5" ry="2.5" style="stroke:#181818;stroke-width:0.5;" width="169" x="857.5" y="565.3642"/><text fill="#000000" font-family="sans-serif" font-size="14" lengthAdjust="spacing" textLength="155" x="864.5" y="587.3301">CredentialMicroservice</text><rect fill="#E2E2F0" height="33.0679" rx="2.5" ry="2.5" style="stroke:#181818;stroke-width:0.5;" width="87" x="1036.5" y="5"/><text fill="#000000" font-family="sans-serif" font-size="14" lengthAdjust="spacing" textLength="73" x="1043.5" y="26.9659">DbAdapter</text><rect fill="#E2E2F0" height="33.0679" rx="2.5" ry="2.5" style="stroke:#181818;stroke-width:0.5;" width="87" x="1036.5" y="565.3642"/><text fill="#000000" font-family="sans-serif" font-size="14" lengthAdjust="spacing" textLength="73" x="1043.5" y="587.3301">DbAdapter</text><polygon fill="#181818" points="253.5,68.7739,263.5,72.7739,253.5,76.7739,257.5,72.7739" style="stroke:#181818;stroke-width:1.0;"/><line style="stroke:#181818;stroke-width:1.0;stroke-dasharray:2.0,2.0;" x1="31.5" x2="259.5" y1="72.7739" y2="72.7739"/><text fill="#000000" font-family="sans-serif" font-size="13" lengthAdjust="spacing" textLength="210" x="38.5" y="66.9649">POST /dbrequest/allReportsByUser</text><polygon fill="#181818" points="411.5,100.4799,421.5,104.4799,411.5,108.4799,415.5,104.4799" style="stroke:#181818;stroke-width:1.0;"/><line style="stroke:#181818;stroke-width:1.0;stroke-dasharray:2.0,2.0;" x1="265.5" x2="417.5" y1="104.4799" y2="104.4799"/><text fill="#000000" font-family="sans-serif" font-size="13" lengthAdjust="spacing" textLength="69" x="272.5" y="98.6709">Verifica JWT</text><polygon fill="#181818" points="276.5,132.186,266.5,136.186,276.5,140.186,272.5,136.186" style="stroke:#181818;stroke-width:1.0;"/><line style="stroke:#181818;stroke-width:1.0;stroke-dasharray:2.0,2.0;" x1="270.5" x2="422.5" y1="136.186" y2="136.186"/><text fill="#000000" font-family="sans-serif" font-size="13" lengthAdjust="spacing" textLength="134" x="282.5" y="130.377">JWT Valido/Non Valido</text><polygon fill="#181818" points="541,163.892,551,167.892,541,171.892,545,167.892" style="stroke:#181818;stroke-width:1.0;"/><line style="stroke:#181818;stroke-width:1.0;stroke-dasharray:2.0,2.0;" x1="265.5" x2="547" y1="167.892" y2="167.892"/><text fill="#000000" font-family="sans-serif" font-size="13" lengthAdjust="spacing" textLength="170" x="272.5" y="162.083">Richiesta Lista ReportUtente</text><polygon fill="#181818" points="732,195.598,742,199.598,732,203.598,736,199.598" style="stroke:#181818;stroke-width:1.0;"/><line style="stroke:#181818;stroke-width:1.0;stroke-dasharray:2.0,2.0;" x1="553" x2="738" y1="199.598" y2="199.598"/><text fill="#000000" font-family="sans-serif" font-size="13" lengthAdjust="spacing" textLength="167" x="560" y="193.789">Richiede Lista ReportUtente</text><polygon fill="#181818" points="930,227.304,940,231.304,930,235.304,934,231.304" style="stroke:#181818;stroke-width:1.0;"/><line style="stroke:#181818;stroke-width:1.0;stroke-dasharray:2.0,2.0;" x1="744" x2="936" y1="231.304" y2="231.304"/><text fill="#000000" font-family="sans-serif" font-size="13" lengthAdjust="spacing" textLength="162" x="751" y="225.495">Richiede validit&#225; credenziali</text><polygon fill="#181818" points="755,259.01,745,263.01,755,267.01,751,263.01" style="stroke:#181818;stroke-width:1.0;"/><line style="stroke:#181818;stroke-width:1.0;stroke-dasharray:2.0,2.0;" x1="749" x2="941" y1="263.01" y2="263.01"/><text fill="#000000" font-family="sans-serif" font-size="13" lengthAdjust="spacing" textLength="174" x="761" y="257.201">Credenziali Valide/Non Valide</text><polygon fill="#181818" points="1068,290.716,1078,294.716,1068,298.716,1072,294.716" style="stroke:#181818;stroke-width:1.0;"/><line style="stroke:#181818;stroke-width:1.0;stroke-dasharray:2.0,2.0;" x1="744" x2="1074" y1="294.716" y2="294.716"/><text fill="#000000" font-family="sans-serif" font-size="13" lengthAdjust="spacing" textLength="167" x="751" y="288.907">Richiede Lista ReportUtente</text><polygon fill="#181818" points="253.5,322.4221,263.5,326.4221,253.5,330.4221,257.5,326.4221" style="stroke:#181818;stroke-width:1.0;"/><line style="stroke:#181818;stroke-width:1.0;stroke-dasharray:2.0,2.0;" x1="31.5" x2="259.5" y1="326.4221" y2="326.4221"/><text fill="#000000" font-family="sans-serif" font-size="13" lengthAdjust="spacing" textLength="175" x="38.5" y="320.6131">POST /dbrequest/ReportById</text><polygon fill="#181818" points="411.5,354.1281,421.5,358.1281,411.5,362.1281,415.5,358.1281" style="stroke:#181818;stroke-width:1.0;"/><line style="stroke:#181818;stroke-width:1.0;stroke-dasharray:2.0,2.0;" x1="265.5" x2="417.5" y1="358.1281" y2="358.1281"/><text fill="#000000" font-family="sans-serif" font-size="13" lengthAdjust="spacing" textLength="69" x="272.5" y="352.3191">Verifica JWT</text><polygon fill="#181818" points="276.5,385.8341,266.5,389.8341,276.5,393.8341,272.5,389.8341" style="stroke:#181818;stroke-width:1.0;"/><line style="stroke:#181818;stroke-width:1.0;stroke-dasharray:2.0,2.0;" x1="270.5" x2="422.5" y1="389.8341" y2="389.8341"/><text fill="#000000" font-family="sans-serif" font-size="13" lengthAdjust="spacing" textLength="134" x="282.5" y="384.0251">JWT Valido/Non Valido</text><polygon fill="#181818" points="541,417.5401,551,421.5401,541,425.5401,545,421.5401" style="stroke:#181818;stroke-width:1.0;"/><line style="stroke:#181818;stroke-width:1.0;stroke-dasharray:2.0,2.0;" x1="265.5" x2="547" y1="421.5401" y2="421.5401"/><text fill="#000000" font-family="sans-serif" font-size="13" lengthAdjust="spacing" textLength="124" x="272.5" y="415.7311">Richiesta ReportById</text><polygon fill="#181818" points="732,449.2461,742,453.2461,732,457.2461,736,453.2461" style="stroke:#181818;stroke-width:1.0;"/><line style="stroke:#181818;stroke-width:1.0;stroke-dasharray:2.0,2.0;" x1="553" x2="738" y1="453.2461" y2="453.2461"/><text fill="#000000" font-family="sans-serif" font-size="13" lengthAdjust="spacing" textLength="121" x="560" y="447.4371">Richiede ReportById</text><polygon fill="#181818" points="930,480.9521,940,484.9521,930,488.9521,934,484.9521" style="stroke:#181818;stroke-width:1.0;"/><line style="stroke:#181818;stroke-width:1.0;stroke-dasharray:2.0,2.0;" x1="744" x2="936" y1="484.9521" y2="484.9521"/><text fill="#000000" font-family="sans-serif" font-size="13" lengthAdjust="spacing" textLength="162" x="751" y="479.1431">Richiede validit&#225; credenziali</text><polygon fill="#181818" points="755,512.6582,745,516.6582,755,520.6582,751,516.6582" style="stroke:#181818;stroke-width:1.0;"/><line style="stroke:#181818;stroke-width:1.0;stroke-dasharray:2.0,2.0;" x1="749" x2="941" y1="516.6582" y2="516.6582"/><text fill="#000000" font-family="sans-serif" font-size="13" lengthAdjust="spacing" textLength="174" x="761" y="510.8492">Credenziali Valide/Non Valide</text><polygon fill="#181818" points="1068,544.3642,1078,548.3642,1068,552.3642,1072,548.3642" style="stroke:#181818;stroke-width:1.0;"/><line style="stroke:#181818;stroke-width:1.0;stroke-dasharray:2.0,2.0;" x1="744" x2="1074" y1="548.3642" y2="548.3642"/><text fill="#000000" font-family="sans-serif" font-size="13" lengthAdjust="spacing" textLength="121" x="751" y="542.5552">Richiede ReportById</text><!--SRC=[rPBDJi9058NtynHtAGlaHpIc2oCKC28eaOBhQUSADnbcS3gjmRVnMNmnRqNbryIbRfgcSxvpp-cTK1CQ3-No1JI7rrVIuxDSGW33kr445HKxVCemzHMfzJqkhFDfQpbEqOaDTG7tvJnMifdvcNNqWeuj9kZeaH89lOT8x9tlJMGLJAGcPIktrdo-xevfnw4rtbcjFqRSKp8ZZYUXJyLp5N7ikHAABUqA7g7BAS5lKk5Xy4jNKA5ZcV4azO0IPzDzYxo8Ilxj5P8FxGjhIVp0xGO9ryYgCwxhxqPfnqqb5twZ-k428lpbLbTKQtcj_je-DvBzRezRm7_QtqRmIpHAYA6Mney7VSZHfSHUjUDwjTuuFZcAPXbqCORQATIhGQCQL4yXx4HG79V4qTMmdzSXjPdZUOglXQCuy-nG4ZsPyp_DkCuS0xXReEcrRxu-GCVavAoPSrtHcmpMWhD6kKKUYWuSUZ8GRNoKcVPC95QHcGOmZhhbSxuEPfh9ANkZ4Q5bNxVaiz4x]--></g></svg>