<?plantuml 1.2026.2?><svg xmlns="http://www.w3.org/2000/svg" xmlns:xlink="http://www.w3.org/1999/xlink" contentStyleType="text/css" data-diagram-type="CLASS" height="177px" preserveAspectRatio="none" style="width:467px;height:177px;background:#FFFFFF;" version="1.1" viewBox="0 0 467 177" width="467px" zoomAndPan="magnify"><defs/><g><!--cluster View ? Pagine pubbliche--><g class="cluster" data-qualified-name="View . Pagine pubbliche" data-source-line="1" id="ent0002"><path d="M8.5,6 L190.9395,6 A3.75,3.75 0 0 1 193.4395,8.5 L200.4395,28.4883 L457.5,28.4883 A2.5,2.5 0 0 1 460,30.9883 L460,168.45 A2.5,2.5 0 0 1 457.5,170.95 L8.5,170.95 A2.5,2.5 0 0 1 6,168.45 L6,8.5 A2.5,2.5 0 0 1 8.5,6" fill="none" style="stroke:#000000;stroke-width:1.5;"/><line style="stroke:#000000;stroke-width:1.5;" x1="6" x2="200.4395" y1="28.4883" y2="28.4883"/><text fill="#000000" font-family="sans-serif" font-size="14" font-weight="bold" lengthAdjust="spacing" textLength="181.4395" x="10" y="21.5352">View &#8212; Pagine pubbliche</text></g><!--class LandingPage--><g class="entity" data-qualified-name="View . Pagine pubbliche.LandingPage" data-source-line="2" id="ent0003"><rect fill="#F1F1F1" height="113.9531" rx="2.5" ry="2.5" style="stroke:#181818;stroke-width:0.5;" width="421.4316" x="22.28" y="41"/><ellipse cx="185.6657" cy="57" fill="#ADD1B2" rx="11" ry="11" style="stroke:#181818;stroke-width:1;"/><path d="M188.1389,63.1431 Q187.5578,63.4419 186.9187,63.5913 Q186.2795,63.7407 185.5739,63.7407 Q183.0671,63.7407 181.7473,62.0889 Q180.4275,60.437 180.4275,57.3159 Q180.4275,54.1865 181.7473,52.5347 Q183.0671,50.8828 185.5739,50.8828 Q186.2795,50.8828 186.927,51.0322 Q187.5744,51.1816 188.1389,51.4805 L188.1389,54.2031 Q187.508,53.6221 186.9145,53.3523 Q186.321,53.0825 185.6902,53.0825 Q184.3454,53.0825 183.6606,54.1492 Q182.9758,55.2158 182.9758,57.3159 Q182.9758,59.4077 183.6606,60.4744 Q184.3454,61.541 185.6902,61.541 Q186.321,61.541 186.9145,61.2712 Q187.508,61.0015 188.1389,60.4204 Z " fill="#000000"/><text fill="#000000" font-family="sans-serif" font-size="14" lengthAdjust="spacing" textLength="86.1602" x="206.1657" y="62.291">LandingPage</text><line style="stroke:#181818;stroke-width:0.5;" x1="23.28" x2="442.7116" y1="73" y2="73"/><line style="stroke:#181818;stroke-width:1;" x1="23.28" x2="442.7116" y1="81" y2="81"/><text fill="#000000" font-family="sans-serif" font-size="14" lengthAdjust="spacing" textLength="318.5957" x="28.28" y="98.5352">Pagina di presentazione pubblica del prodotto.</text><text fill="#000000" font-family="sans-serif" font-size="14" lengthAdjust="spacing" textLength="409.4316" x="28.28" y="115.0234">Mostra hero con CTA, feature showcase, lista degli agenti AI</text><text fill="#000000" font-family="sans-serif" font-size="14" lengthAdjust="spacing" textLength="283.2949" x="28.28" y="131.5117">usati nell'analisi, sezione pricing e footer.</text><text fill="#000000" font-family="sans-serif" font-size="14" lengthAdjust="spacing" textLength="194.5029" x="28.28" y="148">Non richiede autenticazione.</text></g><?plantuml-src HOv1YW9134NtdkBZPZRjt45cDQ3YOd0VgzFTmQBILD883i8SmXDwagdg5bo5vEV_zqSA5-ePwvFm5S-_1uxKIsACq_aS9GoynkyA297CiAFKIkgFrL6lm6OpZzb4Q0LZPkFaT1DzfnI5Ov6qLNVzd2rxDS-4WRCYQCBNpxP1n-HJPjYWrq363QAOLtiV1GMRNB3zdWCcex8aZl634fK_QM3yucO9fIWOdQfpNf27WYd28DmoQFAQ5fQczU6-kly3?></g></svg>