<?xml version="1.0" encoding="us-ascii" standalone="no"?><svg xmlns="http://www.w3.org/2000/svg" xmlns:xlink="http://www.w3.org/1999/xlink" contentStyleType="text/css" height="434px" preserveAspectRatio="none" style="width:475px;height:434px;background:#FFFFFF;" version="1.1" viewBox="0 0 475 434" width="475px" zoomAndPan="magnify"><defs/><g><!--cluster API Layer (Model)--><g id="cluster_API Layer (Model)"><path d="M8.5,6 L131.5,6 A3.75,3.75 0 0 1 134,8.5 L141,29.6094 L465.5,29.6094 A2.5,2.5 0 0 1 468,32.1094 L468,424.5 A2.5,2.5 0 0 1 465.5,427 L8.5,427 A2.5,2.5 0 0 1 6,424.5 L6,8.5 A2.5,2.5 0 0 1 8.5,6 " fill="none" style="stroke:#000000;stroke-width:1.5;"/><line style="stroke:#000000;stroke-width:1.5;" x1="6" x2="141" y1="29.6094" y2="29.6094"/><text fill="#000000" font-family="sans-serif" font-size="14" font-weight="bold" lengthAdjust="spacing" textLength="122" x="10" y="22.5332">API Layer (Model)</text></g><!--class RepositoriesApi--><g id="elem_RepositoriesApi"><rect codeLine="9" fill="#F1F1F1" height="254.9219" id="RepositoriesApi" rx="2.5" ry="2.5" style="stroke:#181818;stroke-width:0.5;" width="430" x="22" y="42"/><text fill="#000000" font-family="sans-serif" font-size="14" lengthAdjust="spacing" textLength="99" x="187.5" y="61.5332">RepositoriesApi</text><line style="stroke:#181818;stroke-width:0.5;" x1="23" x2="451" y1="69.6094" y2="69.6094"/><text fill="#000000" font-family="sans-serif" font-size="14" lengthAdjust="spacing" textLength="233" x="28" y="88.1426">+list(params): Promise&lt;Repository[]&gt;</text><text fill="#000000" font-family="sans-serif" font-size="14" lengthAdjust="spacing" textLength="192" x="28" y="105.752">+get(id): Promise&lt;Repository&gt;</text><text fill="#000000" font-family="sans-serif" font-size="14" lengthAdjust="spacing" textLength="251" x="28" y="123.3613">+create(payload): Promise&lt;Repository&gt;</text><text fill="#000000" font-family="sans-serif" font-size="14" lengthAdjust="spacing" textLength="274" x="28" y="140.9707">+update(id, payload): Promise&lt;Repository&gt;</text><text fill="#000000" font-family="sans-serif" font-size="14" lengthAdjust="spacing" textLength="169" x="28" y="158.5801">+delete(id): Promise&lt;void&gt;</text><text fill="#000000" font-family="sans-serif" font-size="14" lengthAdjust="spacing" textLength="290" x="28" y="176.1895">+getRanking(): Promise&lt;RankedRepository[]&gt;</text><text fill="#000000" font-family="sans-serif" font-size="14" lengthAdjust="spacing" textLength="322" x="28" y="193.7988">+startAnalysis(id, payload): Promise&lt;{ analysisId }&gt;</text><text fill="#000000" font-family="sans-serif" font-size="14" lengthAdjust="spacing" textLength="418" x="28" y="211.4082">+getHistory(id, params): Promise&lt;PaginatedResponse&lt;Analysis&gt;&gt;</text><text fill="#000000" font-family="sans-serif" font-size="14" lengthAdjust="spacing" textLength="298" x="28" y="229.0176">+compareAnalyses(id, ids): Promise&lt;unknown&gt;</text><line style="stroke:#181818;stroke-width:1.0;" x1="23" x2="451" y1="236.0938" y2="236.0938"/><text fill="#000000" font-family="sans-serif" font-size="14" lengthAdjust="spacing" textLength="394" x="28" y="254.627">Gestisce tutte le operazioni sui repository verso il microservizio</text><text fill="#000000" font-family="sans-serif" font-size="14" lengthAdjust="spacing" textLength="387" x="28" y="272.2363">Analysis: CRUD, avvio analisi, recupero storico per repository</text><text fill="#000000" font-family="sans-serif" font-size="14" lengthAdjust="spacing" textLength="248" x="28" y="289.8457">e classifica globale per score di qualit&#224;.</text></g><!--class Gateway--><g id="elem_Gateway"><rect fill="#F1F1F1" height="43.6094" id="Gateway" rx="2.5" ry="2.5" style="stroke:#181818;stroke-width:0.5;" width="61" x="206.5" y="367"/><text fill="#000000" font-family="sans-serif" font-size="14" lengthAdjust="spacing" textLength="55" x="209.5" y="386.5332">Gateway</text><line style="stroke:#181818;stroke-width:0.5;" x1="207.5" x2="266.5" y1="394.6094" y2="394.6094"/><line style="stroke:#181818;stroke-width:0.5;" x1="207.5" x2="266.5" y1="402.6094" y2="402.6094"/></g><!--link RepositoriesApi to Gateway--><g id="link_RepositoriesApi_Gateway"><path codeLine="25" d="M237,297.18 C237,324.16 237,343.65 237,360.89 " fill="none" id="RepositoriesApi-to-Gateway" style="stroke:#181818;stroke-width:1.0;"/><polygon fill="#181818" points="237,366.89,241,357.89,237,361.89,233,357.89,237,366.89" style="stroke:#181818;stroke-width:1.0;"/><text fill="#000000" font-family="sans-serif" font-size="13" lengthAdjust="spacing" textLength="21" x="215" y="328.5351">usa</text></g><!--SRC=[ZPBTQjj048NlzHI3hnngXr0e1LCC9e74q89nw5NfnMHtgWnUxQWxAmKb-5twBdsnZkGVH4XBRxJexBVdp0oZEuur9gp0ILLBf9ZlSnS8cYgyl_nGwFa-SAJSrGIIygECBg9uKge1cpoM4yPTBt-y6edN0LLNEIT-Q3AjdSHxVYQuAXxP4pXEBf0MDReTbWIJrMODdx6Z1DClbX8k9l1I0BZU1RPKYtAMnAIhceSRW7TMgERf4ASN2zWagLZfqvdkldrV7icIyfJzcz09SOamazbrGV3VQ5Fx7cK_W__1hHqQy17L2ljHSLiR8SToElOnYVnRpMZ6b5SHGwUiVwdY1V08h3tiHqbtDZDpEpvxDReDbXojDOjLMn5JJZ7ByvXiUJ3HGQT3FFknIHDtKPxYuS5yFXotf9dL4UGcPmBREgafuJDBPD268PtxX9QI2d20YbqIfTIoSOFDgPe5N6-_tim0svPbw9ILPsRY6hCLw5ja9s0_8-V1WWuxnJ_O8PH17j2AwJbraWWymy_6xFBlNvV6xmlxl5w_-Nm9ariRqnDs4rX0erZi_m00]--></g></svg>