<?plantuml 1.2026.2?><svg xmlns="http://www.w3.org/2000/svg" xmlns:xlink="http://www.w3.org/1999/xlink" contentStyleType="text/css" data-diagram-type="CLASS" height="177px" preserveAspectRatio="none" style="width:469px;height:177px;background:#FFFFFF;" version="1.1" viewBox="0 0 469 177" width="469px" zoomAndPan="magnify"><defs/><g><!--cluster View ? UI Primitives--><g class="cluster" data-qualified-name="View . UI Primitives" data-source-line="1" id="ent0002"><path d="M8.5,6 L159.1934,6 A3.75,3.75 0 0 1 161.6934,8.5 L168.6934,28.4883 L459.5,28.4883 A2.5,2.5 0 0 1 462,30.9883 L462,168.45 A2.5,2.5 0 0 1 459.5,170.95 L8.5,170.95 A2.5,2.5 0 0 1 6,168.45 L6,8.5 A2.5,2.5 0 0 1 8.5,6" fill="none" style="stroke:#000000;stroke-width:1.5;"/><line style="stroke:#000000;stroke-width:1.5;" x1="6" x2="168.6934" y1="28.4883" y2="28.4883"/><text fill="#000000" font-family="sans-serif" font-size="14" font-weight="bold" lengthAdjust="spacing" textLength="149.6934" x="10" y="21.5352">View &#8212; UI Primitives</text></g><!--class Card--><g class="entity" data-qualified-name="View . UI Primitives.Card" data-source-line="2" id="ent0003"><rect fill="#F1F1F1" height="113.9531" rx="2.5" ry="2.5" style="stroke:#181818;stroke-width:0.5;" width="424.2207" x="21.89" y="41"/><ellipse cx="213.7713" cy="57" fill="#ADD1B2" rx="11" ry="11" style="stroke:#181818;stroke-width:1;"/><path d="M216.2445,63.1431 Q215.6634,63.4419 215.0243,63.5913 Q214.3851,63.7407 213.6796,63.7407 Q211.1727,63.7407 209.8529,62.0889 Q208.5331,60.437 208.5331,57.3159 Q208.5331,54.1865 209.8529,52.5347 Q211.1727,50.8828 213.6796,50.8828 Q214.3851,50.8828 215.0326,51.0322 Q215.68,51.1816 216.2445,51.4805 L216.2445,54.2031 Q215.6136,53.6221 215.0201,53.3523 Q214.4266,53.0825 213.7958,53.0825 Q212.451,53.0825 211.7662,54.1492 Q211.0814,55.2158 211.0814,57.3159 Q211.0814,59.4077 211.7662,60.4744 Q212.451,61.541 213.7958,61.541 Q214.4266,61.541 215.0201,61.2712 Q215.6136,61.0015 216.2445,60.4204 Z " fill="#000000"/><text fill="#000000" font-family="sans-serif" font-size="14" lengthAdjust="spacing" textLength="31.958" x="234.2713" y="62.291">Card</text><line style="stroke:#181818;stroke-width:0.5;" x1="22.89" x2="445.1107" y1="73" y2="73"/><line style="stroke:#181818;stroke-width:1;" x1="22.89" x2="445.1107" y1="81" y2="81"/><text fill="#000000" font-family="sans-serif" font-size="14" lengthAdjust="spacing" textLength="412.2207" x="27.89" y="98.5352">Componente contenitore con bordo e padding, composto da</text><text fill="#000000" font-family="sans-serif" font-size="14" lengthAdjust="spacing" textLength="406.3965" x="27.89" y="115.0234">sotto-componenti: CardHeader, CardTitle, CardDescription,</text><text fill="#000000" font-family="sans-serif" font-size="14" lengthAdjust="spacing" textLength="394.0303" x="27.89" y="131.5117">CardContent, CardFooter. Usato come wrapper strutturale</text><text fill="#000000" font-family="sans-serif" font-size="14" lengthAdjust="spacing" textLength="257.209" x="27.89" y="148">per blocchi di contenuto nelle pagine.</text></g><?plantuml-src DKuxRiCm3DrpYeVCTWxGrKMHRXsQxen4E4GLKQ3ePYW2z10zOKuIHMuNyl7XVLWeVDBCs7u8Nt3x-SNX5MycPt7vuhh5zmO8YMh5H1Rx2OnZNvEUYsREpWZQPXPNwnX7jQXW58fHyZmqicchAo9rRrLt7SD_WZpr_3rJP1iwVXTFlC9dhi6ak6WUrkP6JhtILyMBghFjSAZKEbeius9K2Xkgs-A-62NktWTtJ1h2IH3bx_EbkJAdzFXubiox9hrkhdS0?></g></svg>