<?plantuml 1.2026.2?><svg xmlns="http://www.w3.org/2000/svg" xmlns:xlink="http://www.w3.org/1999/xlink" contentStyleType="text/css" data-diagram-type="CLASS" height="194px" preserveAspectRatio="none" style="width:515px;height:194px;background:#FFFFFF;" version="1.1" viewBox="0 0 515 194" width="515px" zoomAndPan="magnify"><defs/><g><!--cluster View ? UI Primitives--><g class="cluster" data-qualified-name="View . UI Primitives" data-source-line="1" id="ent0002"><path d="M8.5,6 L159.1934,6 A3.75,3.75 0 0 1 161.6934,8.5 L168.6934,28.4883 L505.5,28.4883 A2.5,2.5 0 0 1 508,30.9883 L508,184.94 A2.5,2.5 0 0 1 505.5,187.44 L8.5,187.44 A2.5,2.5 0 0 1 6,184.94 L6,8.5 A2.5,2.5 0 0 1 8.5,6" fill="none" style="stroke:#000000;stroke-width:1.5;"/><line style="stroke:#000000;stroke-width:1.5;" x1="6" x2="168.6934" y1="28.4883" y2="28.4883"/><text fill="#000000" font-family="sans-serif" font-size="14" font-weight="bold" lengthAdjust="spacing" textLength="149.6934" x="10" y="21.5352">View &#8212; UI Primitives</text></g><!--class Dialog--><g class="entity" data-qualified-name="View . UI Primitives.Dialog" data-source-line="2" id="ent0003"><rect fill="#F1F1F1" height="130.4414" rx="2.5" ry="2.5" style="stroke:#181818;stroke-width:0.5;" width="470.7324" x="21.63" y="41"/><ellipse cx="230.9259" cy="57" fill="#ADD1B2" rx="11" ry="11" style="stroke:#181818;stroke-width:1;"/><path d="M233.399,63.1431 Q232.818,63.4419 232.1788,63.5913 Q231.5397,63.7407 230.8341,63.7407 Q228.3273,63.7407 227.0074,62.0889 Q225.6876,60.437 225.6876,57.3159 Q225.6876,54.1865 227.0074,52.5347 Q228.3273,50.8828 230.8341,50.8828 Q231.5397,50.8828 232.1871,51.0322 Q232.8346,51.1816 233.399,51.4805 L233.399,54.2031 Q232.7682,53.6221 232.1747,53.3523 Q231.5812,53.0825 230.9503,53.0825 Q229.6056,53.0825 228.9208,54.1492 Q228.236,55.2158 228.236,57.3159 Q228.236,59.4077 228.9208,60.4744 Q229.6056,61.541 230.9503,61.541 Q231.5812,61.541 232.1747,61.2712 Q232.7682,61.0015 233.399,60.4204 Z " fill="#000000"/><text fill="#000000" font-family="sans-serif" font-size="14" lengthAdjust="spacing" textLength="43.6406" x="251.4259" y="62.291">Dialog</text><line style="stroke:#181818;stroke-width:0.5;" x1="22.63" x2="491.3624" y1="73" y2="73"/><line style="stroke:#181818;stroke-width:1;" x1="22.63" x2="491.3624" y1="81" y2="81"/><text fill="#000000" font-family="sans-serif" font-size="14" lengthAdjust="spacing" textLength="388.9854" x="27.63" y="98.5352">Componente modale basato su Radix UI Dialog primitive.</text><text fill="#000000" font-family="sans-serif" font-size="14" lengthAdjust="spacing" textLength="440.0566" x="27.63" y="115.0234">Include overlay con effetto blur, animazioni di apertura/chiusura</text><text fill="#000000" font-family="sans-serif" font-size="14" lengthAdjust="spacing" textLength="413.2324" x="27.63" y="131.5117">e gestione accessibilit&#224; (focus trap, aria-label). Composto da</text><text fill="#000000" font-family="sans-serif" font-size="14" lengthAdjust="spacing" textLength="415.3994" x="27.63" y="148">DialogContent, DialogHeader, DialogTitle, DialogDescription.</text><text fill="#000000" font-family="sans-serif" font-size="14" lengthAdjust="spacing" textLength="458.7324" x="27.63" y="164.4883">Usato come base per AddRepositoryModal e AnalysisOptionsModal.</text></g><?plantuml-src DP11JiCm44NtFSLNLo2rvGnLkw0BL5HHzXDx4aOuTkHn2W5LuX0SWBjm4qw2uxGhUqR-x__lZimhDOpvi_0R_hw-STpXCKehIKwiStpE0ED85LiX5vgo09RBScn2smNFFZ7QOCanAb9A0ThZG5RUHzn5s5sfgoBTUUDwomWdZeu6cE31TSqfgolNnmN8IqiV4hp02gZZcFf8T-P5UisNGc4qh2c_OP0nh2gLE4c_FxYfW-aLALANKL5ewQXYTxkQGcksiHDZohS9kOLFYyjupsGvNgSdIOwlmvRLHEb6rwdAiLGseItr6JafrjOUEDj82d5u6FycPrrxSeEAxejOotf4d6VdVm00?></g></svg>