<?plantuml 1.2026.2?><svg xmlns="http://www.w3.org/2000/svg" xmlns:xlink="http://www.w3.org/1999/xlink" contentStyleType="text/css" data-diagram-type="CLASS" height="401px" preserveAspectRatio="none" style="width:523px;height:401px;background:#FFFFFF;" version="1.1" viewBox="0 0 523 401" width="523px" zoomAndPan="magnify"><defs/><g><!--cluster API Layer (Model)--><g class="cluster" data-qualified-name="API Layer .Model." data-source-line="1" id="ent0002"><path d="M8.5,6 L135.4248,6 A3.75,3.75 0 0 1 137.9248,8.5 L144.9248,28.4883 L513.5,28.4883 A2.5,2.5 0 0 1 516,30.9883 L516,392.38 A2.5,2.5 0 0 1 513.5,394.88 L8.5,394.88 A2.5,2.5 0 0 1 6,392.38 L6,8.5 A2.5,2.5 0 0 1 8.5,6" fill="none" style="stroke:#000000;stroke-width:1.5;"/><line style="stroke:#000000;stroke-width:1.5;" x1="6" x2="144.9248" y1="28.4883" y2="28.4883"/><text fill="#000000" font-family="sans-serif" font-size="14" font-weight="bold" lengthAdjust="spacing" textLength="125.9248" x="10" y="21.5352">API Layer (Model)</text></g><!--class UsersApi--><g class="entity" data-qualified-name="API Layer .Model..UsersApi" data-source-line="2" id="ent0003"><rect fill="#F1F1F1" height="212.8828" rx="2.5" ry="2.5" style="stroke:#181818;stroke-width:0.5;" width="477.165" x="22.42" y="41"/><ellipse cx="226.7428" cy="57" fill="#ADD1B2" rx="11" ry="11" style="stroke:#181818;stroke-width:1;"/><path d="M229.2159,63.1431 Q228.6348,63.4419 227.9957,63.5913 Q227.3565,63.7407 226.651,63.7407 Q224.1441,63.7407 222.8243,62.0889 Q221.5045,60.437 221.5045,57.3159 Q221.5045,54.1865 222.8243,52.5347 Q224.1441,50.8828 226.651,50.8828 Q227.3565,50.8828 228.004,51.0322 Q228.6514,51.1816 229.2159,51.4805 L229.2159,54.2031 Q228.585,53.6221 227.9915,53.3523 Q227.398,53.0825 226.7672,53.0825 Q225.4224,53.0825 224.7376,54.1492 Q224.0528,55.2158 224.0528,57.3159 Q224.0528,59.4077 224.7376,60.4744 Q225.4224,61.541 226.7672,61.541 Q227.398,61.541 227.9915,61.2712 Q228.585,61.0015 229.2159,60.4204 Z " fill="#000000"/><text fill="#000000" font-family="sans-serif" font-size="14" lengthAdjust="spacing" textLength="60.0195" x="247.2428" y="62.291">UsersApi</text><line style="stroke:#181818;stroke-width:0.5;" x1="23.42" x2="498.585" y1="73" y2="73"/><g data-visibility-modifier="PUBLIC_METHOD"><ellipse cx="33.42" cy="86.7441" fill="#84BE84" rx="3" ry="3" style="stroke:#038048;stroke-width:1;"/></g><text fill="#000000" font-family="sans-serif" font-size="14" lengthAdjust="spacing" textLength="189.5811" x="42.42" y="90.5352">getProfile(): Promise&lt;User&gt;</text><g data-visibility-modifier="PUBLIC_METHOD"><ellipse cx="33.42" cy="103.2324" fill="#84BE84" rx="3" ry="3" style="stroke:#038048;stroke-width:1;"/></g><text fill="#000000" font-family="sans-serif" font-size="14" lengthAdjust="spacing" textLength="267.9414" x="42.42" y="107.0234">updateProfile(payload): Promise&lt;User&gt;</text><g data-visibility-modifier="PUBLIC_METHOD"><ellipse cx="33.42" cy="119.7207" fill="#84BE84" rx="3" ry="3" style="stroke:#038048;stroke-width:1;"/></g><text fill="#000000" font-family="sans-serif" font-size="14" lengthAdjust="spacing" textLength="288.5723" x="42.42" y="123.5117">changePassword(payload): Promise&lt;void&gt;</text><g data-visibility-modifier="PUBLIC_METHOD"><ellipse cx="33.42" cy="136.209" fill="#84BE84" rx="3" ry="3" style="stroke:#038048;stroke-width:1;"/></g><text fill="#000000" font-family="sans-serif" font-size="14" lengthAdjust="spacing" textLength="219.7549" x="42.42" y="140">deleteAccount(): Promise&lt;void&gt;</text><g data-visibility-modifier="PUBLIC_METHOD"><ellipse cx="33.42" cy="152.6973" fill="#84BE84" rx="3" ry="3" style="stroke:#038048;stroke-width:1;"/></g><text fill="#000000" font-family="sans-serif" font-size="14" lengthAdjust="spacing" textLength="263.4365" x="42.42" y="156.4883">generateApiKey(): Promise&lt;{ apiKey }&gt;</text><g data-visibility-modifier="PUBLIC_METHOD"><ellipse cx="33.42" cy="169.1855" fill="#84BE84" rx="3" ry="3" style="stroke:#038048;stroke-width:1;"/></g><text fill="#000000" font-family="sans-serif" font-size="14" lengthAdjust="spacing" textLength="227.6436" x="42.42" y="172.9766">linkGithub(code): Promise&lt;User&gt;</text><g data-visibility-modifier="PUBLIC_METHOD"><ellipse cx="33.42" cy="185.6738" fill="#84BE84" rx="3" ry="3" style="stroke:#038048;stroke-width:1;"/></g><text fill="#000000" font-family="sans-serif" font-size="14" lengthAdjust="spacing" textLength="210.9775" x="42.42" y="189.4648">unlinkGithub(): Promise&lt;void&gt;</text><line style="stroke:#181818;stroke-width:1;" x1="23.42" x2="498.585" y1="196.418" y2="196.418"/><text fill="#000000" font-family="sans-serif" font-size="14" lengthAdjust="spacing" textLength="419.959" x="28.42" y="213.9531">Gestisce le operazioni sul profilo utente verso il microservizio</text><text fill="#000000" font-family="sans-serif" font-size="14" lengthAdjust="spacing" textLength="390.7285" x="28.42" y="230.4414">Account: lettura e aggiornamento dati, cambio password,</text><text fill="#000000" font-family="sans-serif" font-size="14" lengthAdjust="spacing" textLength="465.165" x="28.42" y="246.9297">generazione API key e collegamento/scollegamento account GitHub.</text></g><!--class Gateway--><g class="entity" data-qualified-name="API Layer .Model..Gateway" data-source-line="16" id="ent0004"><rect fill="#F1F1F1" height="48" rx="2.5" ry="2.5" style="stroke:#181818;stroke-width:0.5;" width="88.7178" x="216.64" y="330.88"/><ellipse cx="231.64" cy="346.88" fill="#ADD1B2" rx="11" ry="11" style="stroke:#181818;stroke-width:1;"/><path d="M234.1131,353.0231 Q233.5321,353.3219 232.8929,353.4713 Q232.2538,353.6207 231.5482,353.6207 Q229.0414,353.6207 227.7215,351.9689 Q226.4017,350.317 226.4017,347.1959 Q226.4017,344.0665 227.7215,342.4147 Q229.0414,340.7628 231.5482,340.7628 Q232.2538,340.7628 232.9012,340.9122 Q233.5487,341.0616 234.1131,341.3605 L234.1131,344.0831 Q233.4823,343.5021 232.8888,343.2323 Q232.2953,342.9625 231.6644,342.9625 Q230.3197,342.9625 229.6349,344.0292 Q228.9501,345.0958 228.9501,347.1959 Q228.9501,349.2877 229.6349,350.3544 Q230.3197,351.421 231.6644,351.421 Q232.2953,351.421 232.8888,351.1512 Q233.4823,350.8815 234.1131,350.3004 Z " fill="#000000"/><text fill="#000000" font-family="sans-serif" font-size="14" lengthAdjust="spacing" textLength="56.7178" x="245.64" y="352.171">Gateway</text><line style="stroke:#181818;stroke-width:0.5;" x1="217.64" x2="304.3578" y1="362.88" y2="362.88"/><line style="stroke:#181818;stroke-width:0.5;" x1="217.64" x2="304.3578" y1="370.88" y2="370.88"/></g><!--link UsersApi to Gateway--><g class="link" data-entity-1="ent0003" data-entity-2="ent0004" data-link-type="dependency" data-source-line="16" id="lnk5"><path codeLine="16" d="M261,254.17 C261,283.07 261,305.66 261,324.76" fill="none" id="UsersApi-to-Gateway" style="stroke:#181818;stroke-width:1;"/><polygon fill="#181818" points="261,330.76,265,321.76,261,325.76,257,321.76,261,330.76" style="stroke:#181818;stroke-width:1;"/><text fill="#000000" font-family="sans-serif" font-size="13" lengthAdjust="spacing" textLength="21.874" x="262" y="297.4484">usa</text></g><?plantuml-src TP7DRi9038JlFCKefw2Izeug94wqQYjnwGEOZHjMsQoZ_G6bY7Ul2L1nWCl-wRF7CzkJQQbX5ClrEpvfu83oIsfsqmA72M0SnOZlo24kUpi-0KzeEAs3_5Z7vNGEFNOsyki9Mro8tDUK-0hrD3YX-W5hjkGRNglINa9z1zw9hQ-mpiQ9byP8zgby03NiEQY-plp1morr08rlE5vPPtsxiccRDwLHvu_y-1lkhcfLZTkAOxBHC1n3UftYrugtYDcX7zCGvCG-CNOQgi0wTDO4KQsTLNPiSh4troOfvK1WKDDO2PuwhHLek7O6Gzt62lfBShEnzkpzfCeu_MghPXb6dEFcNFqIRs-WinZKt5lUF6kJuqIN_q-lgWMAbQQvfw7073dIvFW7?></g></svg>